<svg width="600" height="600" xmlns="http://www.w3.org/2000/svg">
  <rect width="100%" height="100%" fill="#ffffff" />
  <text x="300.0" y="40" font-family="sans-serif" font-size="20" font-weight="bold" text-anchor="middle">Model Performance Radar</text>
<circle cx="300.0" cy="300.0" r="40.0" fill="none" stroke="#e5e7eb" stroke-width="1" /><text x="305.0" y="275.0" font-family="sans-serif" font-size="10" fill="#9ca3af">20%</text><circle cx="300.0" cy="300.0" r="80.0" fill="none" stroke="#e5e7eb" stroke-width="1" /><text x="305.0" y="235.0" font-family="sans-serif" font-size="10" fill="#9ca3af">40%</text><circle cx="300.0" cy="300.0" r="120.0" fill="none" stroke="#e5e7eb" stroke-width="1" /><text x="305.0" y="195.0" font-family="sans-serif" font-size="10" fill="#9ca3af">60%</text><circle cx="300.0" cy="300.0" r="160.0" fill="none" stroke="#e5e7eb" stroke-width="1" /><text x="305.0" y="155.0" font-family="sans-serif" font-size="10" fill="#9ca3af">80%</text><circle cx="300.0" cy="300.0" r="200.0" fill="none" stroke="#e5e7eb" stroke-width="1" /><text x="305.0" y="115.0" font-family="sans-serif" font-size="10" fill="#9ca3af">100%</text><line x1="300.0" y1="300.0" x2="299.99999999999994" y2="100.0" stroke="#d1d5db" stroke-width="2" /><text x="299.99999999999994" y="70.0" font-family="sans-serif" font-size="14" font-weight="bold" text-anchor="middle" dominant-baseline="middle">Relevance</text><line x1="300.0" y1="300.0" x2="500.0" y2="300.0" stroke="#d1d5db" stroke-width="2" /><text x="530.0" y="300.0" font-family="sans-serif" font-size="14" font-weight="bold" text-anchor="middle" dominant-baseline="middle">Accuracy</text><line x1="300.0" y1="300.0" x2="300.0" y2="500.0" stroke="#d1d5db" stroke-width="2" /><text x="300.0" y="530.0" font-family="sans-serif" font-size="14" font-weight="bold" text-anchor="middle" dominant-baseline="middle">Clarity</text><line x1="300.0" y1="300.0" x2="100.0" y2="300.0" stroke="#d1d5db" stroke-width="2" /><text x="70.0" y="300.0" font-family="sans-serif" font-size="14" font-weight="bold" text-anchor="middle" dominant-baseline="middle">Completeness</text><polygon points="299.99999999999994,116.0 478.0,300.0 300.0,490.0 124.0,300.0" fill="rgba(79, 70, 229, 0.4)" stroke="#4f46e5" stroke-width="2" /><rect x="20" y="540" width="15" height="15" fill="rgba(79, 70, 229, 0.4)" stroke="#4f46e5" /><text x="45" y="552" font-family="sans-serif" font-size="12">llama-3.1-70b</text><polygon points="299.99999999999994,110.0 488.0,300.0 300.0,492.0 116.0,300.0" fill="rgba(16, 185, 129, 0.4)" stroke="#10b981" stroke-width="2" /><rect x="20" y="560" width="15" height="15" fill="rgba(16, 185, 129, 0.4)" stroke="#10b981" /><text x="45" y="572" font-family="sans-serif" font-size="12">gpt-4o</text></svg>